<svg id="Layer_1" data-name="Layer 1" xmlns="http://www.w3.org/2000/svg" viewBox="0 0 1254 543.15"><defs><style>.cls-1{font-size:184.08px;fill:#4c2a28;font-family:SakkalMajalla, Sakkal Majalla;}.cls-2{letter-spacing:0.02em;}.cls-3{letter-spacing:0.02em;}.cls-4{letter-spacing:0em;}.cls-5{fill:#68362f;}.cls-6{fill:#9d4b41;}.cls-7{fill:#bb6a68;}</style></defs><title>Finum Accounting - Logo</title><text class="cls-1" transform="translate(611.68 173.33)"><tspan xml:space="preserve">FINUM  </tspan><tspan class="cls-2" x="474.5" y="0"> </tspan><tspan x="0" y="128.86">Accounting</tspan><tspan x="0" y="257.72">Se</tspan><tspan class="cls-3" x="133.57" y="257.72">r</tspan><tspan class="cls-4" x="182.83" y="257.72">vices</tspan></text><polygon class="cls-5" points="233.03 411.39 156.96 543.15 309.1 543.15 233.03 411.39"/><polygon class="cls-5" points="230.29 409.63 78.15 409.63 154.22 541.39 230.29 409.63"/><polygon class="cls-5" points="425.59 267.57 313.82 223.07 313.82 312.06 425.59 267.57"/><polygon class="cls-6" points="199.62 267.66 311.38 312.15 311.38 223.16 199.62 267.66"/><polygon class="cls-5" points="230.29 405.91 154.22 274.16 78.15 405.91 230.29 405.91"/><polygon class="cls-6" points="386.76 132.69 311.14 1.71 235.52 132.69 386.76 132.69"/><polygon class="cls-7" points="544.55 130.44 469.24 0 393.93 130.44 544.55 130.44"/><polygon class="cls-5" points="150.62 270.64 75.31 140.21 0 270.64 150.62 270.64"/><polygon class="cls-6" points="230.56 134.47 155.25 4.03 79.95 134.47 230.56 134.47"/><polygon class="cls-6" points="232.22 131.92 307.84 0.94 156.6 0.94 232.22 131.92"/><polygon class="cls-7" points="388.92 130.93 464.23 0.5 313.61 0.5 388.92 130.93"/><polygon class="cls-6" points="228.77 137.65 78.15 137.65 153.46 268.08 228.77 137.65"/><polygon class="cls-5" points="75.31 404.52 150.62 274.09 0 274.09 75.31 404.52"/></svg>